<svg width="20" height="21" viewBox="0 0 20 21" fill="none" xmlns="http://www.w3.org/2000/svg">
<path fill-rule="evenodd" clip-rule="evenodd" d="M1.28064 11.747L15.6256 11.747L9.35264 18.023C9.10728 18.2566 8.96842 18.5807 8.96842 18.9195C8.96842 19.2583 9.10728 19.5823 9.35264 19.816C9.5863 20.0613 9.91032 20.2002 10.2491 20.2002C10.588 20.2002 10.912 20.0613 11.1456 19.816L19.4686 11.491C19.9818 10.9044 19.9818 10.0286 19.4686 9.44197L11.1436 1.11697C10.91 0.871613 10.586 0.732746 10.2471 0.732746C9.90832 0.732746 9.58431 0.871613 9.35064 1.11697H9.35064C9.10528 1.35064 8.96642 1.67465 8.96642 2.01347C8.96642 2.35229 9.10528 2.67631 9.35064 2.90997L15.6256 9.18497L1.28064 9.18497C0.934898 9.16401 0.596748 9.29223 0.351826 9.53715C0.106899 9.78208 -0.0213203 10.1202 -0.000358582 10.466C-0.0213203 10.8117 0.106899 11.1499 0.351822 11.3948C0.596748 11.6397 0.934895 11.7679 1.28064 11.747Z" fill="#377DFF"/>
</svg>
