<svg width="80" height="80" viewBox="0 0 80 80" fill="none" xmlns="http://www.w3.org/2000/svg">
<circle cx="40" cy="40" r="40" fill="#FFE3DE"/>
<path fill-rule="evenodd" clip-rule="evenodd" d="M42.5661 45.6909L46.7051 41.5519C47.8473 40.4078 48.1292 38.6612 47.4051 37.2159L47.1711 36.7469C46.447 35.3015 46.729 33.555 47.8711 32.4109L53.0041 27.2779C53.2176 27.0661 53.5195 26.9693 53.8163 27.0176C54.1131 27.0658 54.3688 27.2533 54.5041 27.5219L56.5881 31.6689C58.1746 34.8412 57.5531 38.6728 55.0451 41.1809L43.7781 52.4469C41.048 55.1768 37.0098 56.1299 33.3471 54.9089L28.8121 53.3979C28.5033 53.295 28.2698 53.0395 28.195 52.7227C28.1203 52.4059 28.2149 52.073 28.4451 51.8429L33.4241 46.8629C34.5682 45.7207 36.3148 45.4388 37.7601 46.1629L38.2291 46.3969C39.676 47.1199 41.4233 46.8355 42.5661 45.6909Z" fill="#FF715B"/>
<path opacity="0.3" fill-rule="evenodd" clip-rule="evenodd" d="M44.5729 29.2061L44.2139 32.9451C41.4251 32.6751 38.6614 33.6643 36.6774 35.6426C34.6933 37.6208 33.696 40.3816 33.9579 43.1711L30.2179 43.5201C29.8519 39.6158 31.2479 35.7518 34.0248 32.9829C36.8017 30.2139 40.6696 28.829 44.5729 29.2061L44.5729 29.2061ZM45.2299 21.7221L44.8819 25.4581C39.8735 24.9874 34.9158 26.7723 31.3568 30.3274C27.7978 33.8825 26.0076 38.8383 26.4729 43.8471L22.7319 44.1901C22.1677 38.0705 24.3571 32.0173 28.7055 27.6745C33.0539 23.3317 39.1099 21.1501 45.2289 21.7221L45.2299 21.7221Z" fill="#FF715B"/>
</svg>
