<svg width="80" height="80" viewBox="0 0 80 80" fill="none" xmlns="http://www.w3.org/2000/svg">
<circle cx="40" cy="40" r="40" fill="#EAFAF3"/>
<path fill-rule="evenodd" clip-rule="evenodd" d="M26.167 36.25C26.167 28 31.667 22.5 39.917 22.5C47.5043 22.516 53.651 28.6627 53.667 36.25C53.667 40.5267 49.677 46.399 41.697 53.867C40.6784 54.8204 39.1073 54.8599 38.042 53.959C30.1253 47.2643 26.167 41.3613 26.167 36.25ZM39.917 39C42.4481 39 44.5 36.9481 44.5 34.417C44.5 31.8859 42.4481 29.834 39.917 29.834C37.3859 29.834 35.334 31.8859 35.334 34.417C35.334 36.9481 37.3859 39 39.917 39H39.917Z" fill="#2DCA8C"/>
</svg>
