<svg width="80" height="80" viewBox="0 0 80 80" fill="none" xmlns="http://www.w3.org/2000/svg">
<circle cx="40" cy="40" r="40" fill="#E5F1FF"/>
<path fill-rule="evenodd" clip-rule="evenodd" d="M26.9698 28.7061H52.0868C54.0684 28.7061 55.6748 30.3125 55.6748 32.2941V48.4411C55.6742 50.4239 54.0672 52.0297 52.0856 52.0291L26.9698 52.0291C24.9882 52.0291 23.3818 50.4227 23.3818 48.4411L23.3818 32.2941C23.3818 30.3125 24.9882 28.7061 26.9698 28.7061ZM50.5518 32.0061L39.5288 37.9421L28.5048 32.0061C27.8522 31.6678 27.0488 31.9157 26.7003 32.563C26.3518 33.2103 26.5871 34.0174 27.2288 34.3761L38.8908 40.6551C39.2891 40.8695 39.7685 40.8695 40.1668 40.6551L51.8278 34.3761C52.2593 34.1525 52.5367 33.7137 52.5536 33.2281C52.5706 32.7424 52.3245 32.2854 51.9098 32.0322C51.495 31.779 50.976 31.769 50.5518 32.0061Z" fill="#377DFF"/>
</svg>
