<svg width="273" height="50" viewBox="0 0 273 50" fill="none" xmlns="http://www.w3.org/2000/svg">
<path fill-rule="evenodd" clip-rule="evenodd" d="M0 14.1602V7.16016C0 5.22716 0.683417 3.57724 2.05025 2.21041C3.41709 0.843574 5.067 0.160156 7 0.160156H42.69C44.623 0.160156 46.2729 0.843574 47.6397 2.21041C49.0066 3.57724 49.69 5.22716 49.69 7.16016V42.8502C49.69 44.7831 49.0066 46.4331 47.6397 47.7999C46.2729 49.1667 44.623 49.8502 42.69 49.8502H7C5.067 49.8502 3.41709 49.1667 2.05025 47.7999C0.683417 46.4331 0 44.7831 0 42.8502V14.1602Z" fill="#F5F6FA"/>
<path fill-rule="evenodd" clip-rule="evenodd" d="M25 40C17.268 40 11 33.732 11 26C11 18.268 17.268 12 25 12C32.732 12 39 18.268 39 26C38.9893 33.728 32.7273 39.9897 24.9996 40L25 40ZM36.8074 27.9163C34.3902 27.2134 31.8499 27.0391 29.3594 27.4053C30.3759 30.1758 31.1534 33.0282 31.6834 35.9313C34.4243 34.0807 36.2795 31.1805 36.8104 27.9163L36.8074 27.9163ZM29.6722 37.0249C29.1091 33.9293 28.2536 30.894 27.1172 27.96L27.0402 27.9829C20.2852 30.3339 17.8702 35.0119 17.6602 35.4499C21.0765 38.1168 25.6707 38.7206 29.6602 37.0269L29.6722 37.0249ZM16.1168 34.0151C18.37 30.3593 21.7972 27.5765 25.8378 26.1222C25.9948 26.0701 26.1528 26.0221 26.3098 25.9821C26.0098 25.3001 25.6798 24.6211 25.3388 23.9521C21.3428 25.0954 17.2052 25.6678 13.0488 25.6521L13.0488 26.0161C13.0459 28.971 14.141 31.8221 16.1214 34.0157L16.1168 34.0151ZM13.293 23.5683C17.0252 23.5497 20.7401 23.0605 24.35 22.1123C22.9973 19.7305 21.5174 17.4231 19.9169 15.2002C16.5221 16.7986 14.0715 19.8943 13.295 23.5653L13.293 23.5683ZM22.1992 14.3943C23.8359 16.6284 25.3254 18.9667 26.6582 21.3943C29.1192 20.5863 31.2955 19.0869 32.9272 17.0753C30.007 14.477 25.9991 13.4739 22.1992 14.3903L22.1992 14.3943ZM34.2561 18.457C32.4761 20.5801 30.1749 22.2042 27.5781 23.17C27.8581 23.742 28.1261 24.319 28.3711 24.904C28.4641 25.114 28.5461 25.324 28.6281 25.522C31.4084 25.2339 34.2162 25.3636 36.9581 25.907C36.9407 23.1903 35.9892 20.5623 34.2632 18.4641L34.2561 18.457Z" fill="#AAB0B7"/>
<path fill-rule="evenodd" clip-rule="evenodd" d="M74.4395 14.1602V7.16016C74.4395 5.22716 75.1229 3.57724 76.4897 2.21041C77.8565 0.843574 79.5065 0.160156 81.4395 0.160156H117.129C119.062 0.160156 120.712 0.843574 122.079 2.21041C123.446 3.57724 124.129 5.22716 124.129 7.16016V42.8502C124.129 44.7831 123.446 46.4331 122.079 47.7999C120.712 49.1667 119.062 49.8502 117.129 49.8502H81.4395C79.5065 49.8502 77.8565 49.1667 76.4897 47.7999C75.1229 46.4331 74.4395 44.7831 74.4395 42.8502V14.1602Z" fill="#F5F6FA"/>
<path fill-rule="evenodd" clip-rule="evenodd" d="M101.087 38.9941V26.2251H105.215L105.833 21.2481H101.087V18.0711C101.087 16.6301 101.472 15.6481 103.462 15.6481H106V11.2001C104.771 11.0637 103.536 10.9969 102.3 11.0001C98.641 11.0001 96.136 13.3191 96.136 17.5781V21.2481H92V26.2251H96.138V38.9951L101.087 38.9941Z" fill="#AAB0B7"/>
<path fill-rule="evenodd" clip-rule="evenodd" d="M148.869 16.1602V8.16016C148.869 5.95102 149.65 4.0654 151.212 2.5033C152.774 0.941205 154.66 0.160156 156.869 0.160156H190.559C192.768 0.160156 194.654 0.941205 196.216 2.5033C197.778 4.0654 198.559 5.95102 198.559 8.16016V41.8502C198.559 44.0593 197.778 45.9449 196.216 47.507C194.654 49.0691 192.768 49.8502 190.559 49.8502H156.869C154.66 49.8502 152.774 49.0691 151.212 47.507C149.65 45.9449 148.869 44.0593 148.869 41.8502V16.1602Z" fill="#F5F6FA"/>
<mask id="mask0_741_1484" style="mask-type:luminance" maskUnits="userSpaceOnUse" x="160" y="11" width="28" height="28">
<rect x="160" y="11" width="28" height="28" fill="white"/>
</mask>
<g mask="url(#mask0_741_1484)">
<path fill-rule="evenodd" clip-rule="evenodd" d="M187.946 16.3301C186.896 16.7906 185.784 17.0938 184.646 17.2301C185.843 16.5106 186.74 15.3821 187.17 14.0531C186.039 14.7117 184.806 15.1783 183.522 15.4341C181.912 13.7183 179.417 13.1595 177.229 14.0245C175.04 14.8896 173.602 17.003 173.6 19.3561C173.6 19.798 173.65 20.2378 173.748 20.6678C169.132 20.4469 164.829 18.2721 161.913 14.6871C161.398 15.5617 161.13 16.5593 161.136 17.5741C161.134 19.4943 162.092 21.2881 163.689 22.3542C162.778 22.3252 161.886 22.0786 161.089 21.6351L161.089 21.7061C161.087 24.4392 163.011 26.7945 165.689 27.3382C164.847 27.5654 163.965 27.5995 163.108 27.4381C163.864 29.7768 166.021 31.3777 168.479 31.4241C166.448 33.0176 163.941 33.8826 161.36 33.8801C160.906 33.8791 160.451 33.8528 160 33.8011C162.632 35.4845 165.692 36.3775 168.816 36.3741C179.379 36.3741 185.148 27.6291 185.148 20.0571C185.148 19.8131 185.148 19.5671 185.131 19.3221C186.257 18.5121 187.229 17.5065 188 16.3531L187.946 16.3301Z" fill="#AAB0B7"/>
</g>
<path fill-rule="evenodd" clip-rule="evenodd" d="M223.311 14.1602V7.16016C223.311 5.22716 223.994 3.57724 225.361 2.21041C226.728 0.843574 228.378 0.160156 230.311 0.160156H266.001C267.934 0.160156 269.583 0.843574 270.95 2.21041C272.317 3.57724 273.001 5.22716 273.001 7.16016V42.8502C273.001 44.7831 272.317 46.4331 270.95 47.7999C269.583 49.1667 267.934 49.8502 266.001 49.8502H230.311C228.378 49.8502 226.728 49.1667 225.361 47.7999C223.994 46.4331 223.311 44.7831 223.311 42.8502V14.1602Z" fill="#F5F6FA"/>
<path fill-rule="evenodd" clip-rule="evenodd" d="M261.406 18.0521C261.244 17.4655 260.934 16.9304 260.506 16.4981C260.081 16.0675 259.551 15.7546 258.968 15.5901C256.786 14.9991 248.005 14.9991 248.005 14.9991C248.005 14.9991 239.249 14.9841 237.045 15.5911C236.463 15.7556 235.933 16.0685 235.507 16.4991C235.079 16.9314 234.769 17.4665 234.607 18.0531C234.194 20.3107 233.99 22.6018 233.998 24.8971C233.992 27.1828 234.197 29.4648 234.609 31.7135C234.771 32.3002 235.081 32.8355 235.509 33.2681C235.935 33.6986 236.465 34.0115 237.047 34.1761C239.226 34.7681 248.01 34.7681 248.01 34.7681C248.01 34.7681 256.767 34.7681 258.973 34.1761C259.556 34.0115 260.086 33.6986 260.511 33.2681C260.939 32.8357 261.249 32.3006 261.411 31.7141C261.815 29.4641 262.01 27.1818 261.994 24.8961C262.01 22.6018 261.813 20.3107 261.406 18.0523L261.406 18.0521ZM245.205 29.1291V20.6491L252.513 24.8961L245.205 29.1291Z" fill="#AAB0B7"/>
</svg>
